HIERARCHY
ROOT hip
{
	OFFSET 0.000000 0.000000 0.000000 
	CHANNELS 6 Xposition Yposition Zposition Xrotation Zrotation Yrotation
	JOINT abdomen
	{
		OFFSET 0.000000 3.402643 0.000000 
		CHANNELS 3 Xrotation Zrotation Yrotation
		JOINT chest
		{
			OFFSET 0.000000 8.438565 -0.680529 
			CHANNELS 3 Xrotation Zrotation Yrotation
			JOINT neck
			{
				OFFSET 0.000000 10.207942 -0.272212 
				CHANNELS 3 Xrotation Zrotation Yrotation
				JOINT head
				{
					OFFSET 0.000000 3.130431 0.000000 
					CHANNELS 3 Xrotation Zrotation Yrotation
					End Site
					{
						OFFSET 0.000000 3.130435 0.000000 
					}
				}
			}
			JOINT lCollar
			{
				OFFSET 3.470700 6.669187 -0.816635 
				CHANNELS 3 Yrotation Zrotation Xrotation
				JOINT lShldr
				{
					OFFSET 3.198488 0.000000 0.000000 
					CHANNELS 3 Zrotation Yrotation Xrotation
					JOINT lForeArm
					{
						OFFSET 10.139888 0.000000 0.000000 
						CHANNELS 3 Yrotation Zrotation Xrotation
						JOINT lHand
						{
							OFFSET 8.370511 0.000000 0.000000 
							CHANNELS 3 Zrotation Yrotation Xrotation
							End Site
							{
								OFFSET 4.083176 0.000000 0.000000 
							}
						}
					}
				}
			}
			JOINT rCollar
			{
				OFFSET -3.470700 6.669187 -0.816635 
				CHANNELS 3 Yrotation Zrotation Xrotation
				JOINT rShldr
				{
					OFFSET -3.198488 0.000000 0.000000 
					CHANNELS 3 Zrotation Yrotation Xrotation
					JOINT rForeArm
					{
						OFFSET -10.139888 0.000000 0.000000 
						CHANNELS 3 Yrotation Zrotation Xrotation
						JOINT rHand
						{
							OFFSET -8.370511 0.000000 0.000000 
							CHANNELS 3 Zrotation Yrotation Xrotation
							End Site
							{
								OFFSET -4.083176 0.000000 0.000000 
							}
						}
					}
				}
			}
		}
	}
	JOINT lThigh
	{
		OFFSET 5.308129 -1.633274 1.361059 
		CHANNELS 3 Xrotation Zrotation Yrotation
		JOINT lShin
		{
			OFFSET -2.041588 -20.007561 0.000000 
			CHANNELS 3 Xrotation Zrotation Yrotation
			JOINT lFoot
			{
				OFFSET 0.000000 -19.190928 -1.224953 
				CHANNELS 3 Xrotation Yrotation Zrotation
				End Site
				{
					OFFSET 0.000000 -2.449906 4.627600 
				}
			}
		}
	}
	JOINT rThigh
	{
		OFFSET -5.308129 -1.633274 1.361059 
		CHANNELS 3 Xrotation Zrotation Yrotation
		JOINT rShin
		{
			OFFSET 2.041588 -20.007561 0.000000 
			CHANNELS 3 Xrotation Zrotation Yrotation
			JOINT rFoot
			{
				OFFSET 0.000000 -19.190928 -1.224953 
				CHANNELS 3 Xrotation Yrotation Zrotation
				End Site
				{
					OFFSET 0.000000 -2.449906 4.627600 
				}
			}
		}
	}
}
MOTION
Frames: 11
Frame Time: 0.033333
3.319626 53.112583 -51.165649 5.712276 -0.186538 -0.882325 22.878304 -0.062720 -1.367654 -23.039515 4.661082 -0.187582 -18.818975 -6.994045 -1.322392 24.651072 11.374848 -2.657860 9.553514 -10.448139 3.647584 -72.429291 -36.170036 29.967739 -48.578712 7.358653 7.589246 8.524705 12.647240 -58.294319 -5.779580 5.050342 2.610686 70.801727 27.605560 20.681627 52.521824 -8.243666 9.193665 -8.534408 -12.637552 38.812359 -4.372879 5.593162 -1.100826 19.506247 -5.790245 -3.451870 -19.216024 0.693554 -2.517668 -4.156832 -4.596108 1.151161 20.227240 5.756130 3.531152 -19.455933 -8.478148 0.037759 
3.326546 53.118874 -51.162506 5.839234 -0.195291 -0.874015 22.770723 -0.024065 -1.304067 -22.951355 4.593679 -0.166769 -19.056307 -7.000596 -1.320140 24.801456 11.438365 -2.652477 9.553514 -10.448139 3.647584 -72.420349 -36.339184 30.070427 -48.454342 7.329539 7.540514 8.524705 12.647240 -58.235729 -5.779580 5.050342 2.610686 70.831772 27.721064 20.638363 52.511097 -8.239911 9.184276 -8.534408 -12.637552 38.704933 -4.476290 5.588494 -1.118510 19.462391 -5.801120 -3.449093 -19.246128 0.721865 -2.490070 -4.301867 -4.614328 1.087239 20.257332 5.756391 3.543552 -19.391399 -8.367251 0.086675 
3.332206 53.121387 -51.159042 5.868335 -0.135288 -0.975980 22.693026 -0.081431 -1.292569 -22.892576 4.584097 -0.161526 -18.889162 -7.038079 -1.285114 24.632740 11.536679 -2.562425 9.553514 -10.448139 3.647584 -72.412872 -36.300583 29.972773 -48.381439 7.310415 7.512914 8.524705 12.647240 -58.304085 -5.779580 5.050342 2.610686 70.825935 27.770430 20.725748 52.479832 -8.235196 9.172133 -8.534408 -12.637552 38.607281 -4.530570 5.507116 -1.118526 19.404875 -5.789354 -3.433223 -19.198404 0.864165 -2.473572 -4.348762 -4.690347 1.084069 20.226908 5.759641 3.512274 -19.275930 -8.224422 0.158024 
3.330320 53.126732 -51.158100 5.907294 -0.157734 -1.037371 22.634216 -0.062883 -1.231304 -22.863192 4.575520 -0.139138 -18.722488 -7.078945 -1.259564 24.492624 11.636066 -2.496959 9.553514 -10.448139 3.647584 -72.373871 -36.206654 30.047853 -48.506001 7.339090 7.551798 8.524705 12.647240 -58.421280 -5.779580 5.050342 2.610686 70.800888 27.713348 20.773554 52.531441 -8.241476 9.195384 -8.534408 -12.637552 38.812359 -4.652527 5.540580 -1.076028 19.401354 -5.800652 -3.443745 -19.081854 0.938942 -2.440908 -4.362819 -4.655728 1.123370 20.206287 5.759618 3.520238 -19.296509 -8.259672 0.158228 
3.323400 53.130192 -51.169422 5.936566 -0.251306 -1.076693 22.662947 -0.000521 -1.146037 -22.931772 4.576466 -0.125092 -18.683857 -7.103105 -1.248113 24.537191 11.719326 -2.462833 9.553514 -10.448139 3.647584 -72.348816 -36.130737 30.123592 -48.620495 7.370446 7.607535 8.524705 12.647240 -58.528698 -5.779580 5.050342 2.610686 70.805893 27.654247 20.759752 52.543480 -8.250548 9.202702 -8.534408 -12.637552 38.978374 -4.769587 5.657764 -1.169058 19.463030 -5.797790 -3.459288 -19.101658 1.001985 -2.415061 -4.388014 -4.515176 1.263603 20.185793 5.757976 3.537719 -19.391413 -8.428303 0.072988 
3.316481 53.123589 -51.183578 5.936621 -0.320309 -1.074051 22.760107 0.072933 -1.147352 -23.117907 4.634523 -0.143426 -18.634787 -7.158056 -1.176729 24.666849 11.775779 -2.304034 9.553514 -10.448139 3.647584 -72.364388 -35.941002 30.109524 -48.745102 7.398566 7.646761 8.524705 12.647240 -58.518929 -5.779580 5.050342 2.610686 70.748306 27.569979 20.762445 52.532745 -8.246800 9.193309 -8.534408 -12.637552 38.929546 -4.850985 5.749233 -1.224006 19.536428 -5.790531 -3.464277 -19.130781 1.001999 -2.426396 -4.383948 -4.423079 1.363613 20.145557 5.757609 3.523444 -19.396540 -8.556064 0.018735 
3.312708 53.125160 -51.195217 5.917321 -0.380317 -0.972126 22.955540 0.145895 -1.147772 -23.490194 4.584124 -0.179894 -18.646429 -7.013350 -1.171461 24.952328 11.649117 -2.232442 9.553514 -10.448139 3.647584 -72.275749 -35.695206 30.058880 -48.786896 7.410224 7.665133 8.524705 12.647240 -58.724014 -5.779580 5.050342 2.610686 70.808472 27.330885 20.757505 52.542358 -8.244609 9.195028 -8.534408 -12.637552 39.124859 -4.848583 5.824603 -1.095157 19.627888 -5.791353 -3.472315 -19.129866 0.809657 -2.471905 -4.319908 -4.349481 1.367957 20.094490 5.760826 3.500125 -19.300577 -8.655625 0.023937 
3.309876 53.122959 -51.201820 5.897816 -0.316664 -0.926116 22.936245 0.064015 -1.145702 -23.039539 4.556149 -0.142261 -18.908899 -6.896395 -1.226288 24.821224 11.532715 -2.389766 9.553514 -10.448139 3.647584 -72.333191 -36.211769 30.088390 -48.651646 7.377502 7.617012 8.524705 12.647240 -58.938858 -5.779580 5.050342 2.610686 70.891876 27.717022 20.856253 52.489441 -8.233011 9.173850 -8.534408 -12.637552 39.730328 -4.789576 5.755687 -0.960360 19.701906 -5.780498 -3.487436 -19.195890 0.677265 -2.538356 -4.309993 -4.427352 1.366444 20.064425 5.757010 3.516326 -19.233770 -8.664458 0.024554 
3.315224 53.122959 -51.198990 5.907312 -0.291716 -1.070871 22.916447 0.013226 -1.036859 -22.951382 4.538545 -0.104910 -18.911182 -6.896646 -1.288009 24.782869 11.515674 -2.524161 9.553514 -10.448139 3.647584 -72.343536 -36.319187 30.099298 -48.578918 7.358043 7.579502 8.524705 12.647240 -58.958385 -5.779580 5.050342 2.610686 70.887695 27.668335 21.017725 52.595089 -8.256761 9.224585 -8.534408 -12.637552 40.120956 -4.879764 5.738914 -0.919181 19.762789 -5.781204 -3.492820 -19.246721 0.788778 -2.484254 -4.353981 -4.461476 1.432480 20.034019 5.756680 3.513642 -19.218493 -8.597723 0.065821 
3.317110 53.127048 -51.196468 5.946236 -0.293618 -1.140073 22.916557 0.009737 -0.972438 -22.922012 4.500710 -0.080871 -19.033089 -6.950830 -1.300563 24.944014 11.641732 -2.543123 9.553514 -10.448139 3.647584 -72.341904 -36.418232 30.138906 -48.547771 7.350944 7.570052 8.524705 12.647240 -58.811897 -5.779580 5.050342 2.610686 70.908562 27.676720 21.091637 52.648018 -8.268233 9.245830 -8.534408 -12.637552 40.150249 -4.987232 5.739072 -0.936421 19.783789 -5.777792 -3.503762 -19.178852 0.863026 -2.474247 -4.387400 -4.465825 1.402233 20.013750 5.756461 3.511850 -19.239103 -8.569054 0.068507 
3.311764 53.122959 -51.202133 5.926899 -0.360354 -1.068317 23.004477 0.112295 -1.049198 -22.951389 4.518486 -0.113539 -18.865908 -6.960775 -1.305675 24.688717 11.658074 -2.536899 9.553514 -10.448139 3.647584 -72.407494 -36.380337 29.977297 -48.620697 7.369836 7.597792 8.524705 12.647240 -58.870499 -5.779580 5.050342 2.610686 70.896881 27.657921 21.135420 52.648018 -8.268233 9.245830 -8.534408 -12.637552 40.130714 -4.999746 5.810297 -0.973845 19.782871 -5.781097 -3.504283 -19.168230 0.779956 -2.500512 -4.309737 -4.378350 1.406906 19.969688 5.771078 3.490284 -19.233709 -8.641969 0.048932 
